<?xml version="1.0" standalone="no"?>
<!DOCTYPE svg PUBLIC "-//W3C//DTD SVG 20010904//EN"
 "http://www.w3.org/TR/2001/REC-SVG-20010904/DTD/svg10.dtd">
<svg version="1.0" xmlns="http://www.w3.org/2000/svg"
 width="1280.000000pt" height="942.000000pt" viewBox="0 0 1280.000000 942.000000"
 preserveAspectRatio="xMidYMid meet">
<g transform="translate(0.000000,942.000000) scale(0.100000,-0.100000)"
fill="#000000" stroke="none">
<path d="M2750 9417 c-3 -4 -48 -11 -100 -17 -582 -69 -1110 -393 -1503 -922
-68 -93 -152 -227 -297 -480 -45 -78 -86 -135 -135 -184 -112 -113 -169 -123
-445 -78 -203 33 -229 31 -255 -18 -19 -36 -19 -37 -1 -110 26 -102 150 -455
188 -536 17 -37 92 -157 166 -267 75 -110 165 -247 200 -305 464 -753 1337
-1567 2002 -1867 123 -55 148 -56 203 -1 43 44 167 212 167 227 0 5 -32 11
-71 13 -83 4 -99 18 -99 85 0 54 -13 60 -81 38 -52 -17 -53 -17 -69 3 -10 11
-20 44 -24 72 -4 28 -11 62 -16 76 -10 24 -13 25 -81 22 -84 -3 -93 4 -103 88
-11 91 -16 97 -91 89 -59 -7 -64 -6 -78 16 -9 13 -19 51 -22 84 -10 83 -16 88
-90 80 -77 -8 -83 -2 -94 99 -12 101 -20 110 -92 102 -78 -9 -89 3 -89 98 0
94 -8 103 -93 108 -95 6 -103 16 -86 107 7 39 10 73 7 76 -3 3 -29 1 -58 -5
-43 -8 -58 -7 -77 5 -22 14 -23 22 -23 115 l0 99 -74 143 c-123 238 -151 342
-166 626 -15 272 3 413 77 612 78 211 219 416 410 601 142 136 267 227 423
308 148 76 240 112 370 145 258 64 494 52 700 -37 164 -71 299 -191 437 -387
71 -103 210 -250 234 -250 5 0 12 -19 15 -42 10 -62 35 -81 92 -73 26 3 173
48 327 100 319 106 402 125 559 125 196 0 358 -40 540 -133 172 -88 344 -236
445 -385 111 -163 213 -420 262 -658 30 -145 37 -442 14 -588 -32 -209 -102
-409 -201 -580 -298 -514 -789 -775 -1639 -871 -77 -8 -158 -20 -180 -26 -193
-52 -345 -239 -397 -486 -26 -125 -21 -301 11 -408 12 -38 37 -166 57 -283 19
-117 44 -243 55 -280 44 -142 116 -241 220 -301 97 -55 148 -66 314 -65 128 0
167 4 265 28 63 15 134 30 158 33 37 5 42 3 42 -14 0 -10 -18 -33 -40 -49 -93
-72 -147 -174 -157 -299 l-6 -70 -72 -76 c-48 -51 -85 -101 -109 -150 -35 -72
-331 -1056 -357 -1190 -23 -117 1 -282 56 -389 12 -24 18 -62 19 -144 2 -92 7
-122 29 -180 67 -172 217 -309 397 -360 55 -16 919 -218 1092 -256 114 -25
133 -25 233 0 105 26 207 77 275 138 54 48 57 49 135 56 44 4 113 19 154 32
46 16 261 129 580 307 494 275 508 284 587 362 63 62 89 97 117 155 39 83 57
156 57 230 0 49 0 49 58 84 243 147 311 446 156 678 -19 28 -33 55 -32 60 2 6
55 -31 118 -80 328 -256 537 -347 757 -328 136 11 248 65 357 171 73 71 118
130 256 330 57 83 139 193 183 245 43 52 100 130 125 173 25 43 49 80 53 83 4
2 45 -16 91 -40 156 -84 242 -114 653 -223 244 -65 355 -50 355 47 0 22 -19
117 -42 212 -35 149 -41 189 -42 288 -1 103 2 120 23 159 54 102 173 202 430
361 765 474 1245 1110 1381 1828 24 129 39 248 46 362 6 93 -22 342 -56 509
-76 366 -256 735 -527 1085 -64 81 -93 127 -93 145 0 35 -22 64 -67 92 -21 12
-76 59 -123 104 -126 119 -236 173 -391 191 -48 5 -97 24 -213 80 -1133 545
-2051 458 -2848 -272 -233 -214 -481 -520 -702 -868 -155 -242 -322 -713 -372
-1049 -9 -62 -21 -116 -25 -122 -6 -5 -26 7 -52 33 l-42 42 -95 -76 c-161
-128 -220 -193 -220 -243 0 -35 97 -213 202 -371 99 -150 215 -304 331 -439
45 -53 60 -80 81 -150 42 -138 58 -229 58 -341 1 -173 -34 -270 -193 -537
-232 -388 -296 -591 -229 -728 45 -93 181 -208 458 -387 59 -38 120 -80 137
-93 28 -22 29 -25 14 -40 -13 -13 -40 -17 -140 -19 -102 -1 -134 -6 -181 -25
-109 -43 -180 -109 -262 -244 -16 -26 -20 -27 -95 -27 -49 0 -102 -7 -138 -18
-32 -10 -265 -130 -518 -266 -530 -286 -548 -296 -597 -343 l-36 -35 -184 44
c-143 34 -184 48 -186 61 -2 10 45 174 104 365 115 373 127 436 104 545 -20
97 -81 205 -165 293 -70 74 -75 81 -70 113 11 58 6 164 -9 213 -42 142 -171
256 -309 274 -51 7 -78 33 -54 52 6 6 73 20 147 32 527 84 599 128 623 388 8
87 8 156 -2 286 -24 301 -25 378 -7 458 34 152 114 271 347 514 177 185 258
296 348 484 144 298 230 706 231 1086 0 266 -105 774 -222 1069 -274 691 -755
1072 -1501 1186 -97 15 -205 22 -407 26 l-275 6 -40 32 c-22 18 -125 90 -229
160 -354 237 -658 360 -1016 410 -124 18 -332 31 -340 22z m7510 -1832 c191
-37 402 -127 552 -235 109 -79 234 -195 274 -256 62 -93 187 -201 335 -289
293 -174 415 -298 526 -531 68 -145 95 -260 100 -442 6 -177 -6 -294 -47 -451
-156 -594 -615 -1146 -1149 -1381 -185 -81 -318 -114 -524 -130 -450 -34 -708
16 -1117 219 -224 111 -385 217 -479 317 -206 217 -349 458 -430 719 -111 365
-104 762 21 1140 124 377 386 744 724 1011 156 125 294 200 468 258 77 25 241
61 321 70 81 8 342 -3 425 -19z m-5001 -4537 c76 -69 103 -121 109 -217 5 -74
5 -74 -19 -68 -13 3 -62 21 -108 40 -46 20 -93 38 -104 41 -18 4 -19 10 -13
52 3 25 18 73 32 104 27 61 25 85 -6 75 -19 -6 -35 9 -26 24 8 13 104 -24 135
-51z m-359 -18 c0 -6 -7 -13 -15 -16 -25 -10 -17 -27 30 -74 61 -60 59 -72
-17 -89 -133 -27 -122 -29 -115 14 8 47 41 112 76 147 28 29 41 35 41 18z
m260 -383 c107 -53 112 -68 35 -103 -50 -23 -67 -26 -134 -22 -83 5 -127 22
-178 71 -53 49 -43 64 59 91 72 20 118 12 218 -37z m-344 -126 c123 -113 319
-131 473 -46 53 30 60 26 100 -54 77 -154 71 -223 -54 -631 -54 -173 -101
-319 -106 -324 -5 -6 -70 5 -168 28 -140 34 -169 38 -247 34 -58 -3 -109 -13
-146 -27 -90 -35 -195 -116 -268 -208 -36 -44 -68 -79 -72 -76 -13 7 -9 124 6
188 18 74 248 859 275 938 30 85 122 227 148 227 3 0 29 -22 59 -49z m2904
-397 c0 -11 -6 -14 -22 -9 -13 4 -27 8 -33 9 -6 0 -13 -43 -16 -104 -3 -58
-12 -127 -19 -153 -11 -43 -11 -50 5 -67 30 -33 76 -25 172 30 49 28 105 56
126 62 55 17 65 33 37 63 -24 26 -19 55 6 34 31 -26 58 -103 62 -179 6 -119
-46 -232 -138 -295 -33 -23 -42 -25 -55 -15 -8 7 -15 17 -15 23 0 19 -99 143
-167 208 -73 70 -177 143 -255 177 -53 23 -53 24 -37 55 53 99 179 176 292
177 45 0 57 -3 57 -16z m-487 -484 c26 -72 79 -152 131 -196 68 -59 187 -112
289 -129 31 -5 37 -10 37 -30 0 -61 -72 -188 -148 -262 -63 -62 -85 -75 -555
-338 -374 -208 -512 -275 -571 -275 -11 0 -15 38 -19 178 -3 141 -9 191 -26
247 -33 110 -85 205 -152 278 -33 37 -59 73 -56 80 7 18 840 467 907 489 30 9
75 16 99 15 43 -2 44 -3 64 -57z m225 8 c67 -33 212 -160 212 -186 0 -17 -57
-15 -111 3 -85 30 -181 120 -203 193 -10 32 20 29 102 -10z m-2454 -404 c141
-36 136 -33 136 -58 0 -34 -69 -134 -130 -189 -168 -151 -442 -185 -562 -70
-35 34 -35 48 2 106 62 98 159 173 268 208 72 23 203 24 286 3z m574 -140 c81
-21 153 -41 159 -47 9 -7 11 -33 7 -96 -8 -106 13 -234 57 -355 49 -136 109
-216 240 -318 l34 -26 -46 -21 c-151 -68 -232 -60 -819 77 -534 126 -588 145
-699 247 -57 53 -123 157 -109 171 4 4 29 -2 55 -14 112 -47 338 -53 496 -13
135 35 267 114 341 204 35 43 96 163 96 190 0 14 19 37 32 37 5 0 75 -16 156
-36z m497 -206 c102 -107 155 -233 155 -374 0 -115 -8 -121 -95 -80 -68 32
-119 88 -152 166 -24 58 -27 77 -27 180 -1 122 11 170 41 170 9 0 44 -28 78
-62z"/>
</g>
</svg>
